<svg xmlns="http://www.w3.org/2000/svg" width="63" height="60" viewBox="0 0 63 60" fill="none"><path d="M31.5023 0C26.675 4.8577 26.675 12.7305 31.5023 17.5836C36.325 12.7305 36.325 4.8577 31.5023 0Z" fill="#3D422F"></path><path d="M31.5023 22.9018C31.5023 22.9018 17.5152 8.52418 0 7.56567C0 7.56567 31.5023 25.3307 31.5023 59.9999C41.684 49.7541 41.684 33.143 31.5023 22.9018Z" fill="#FF782B"></path><path d="M40.1905 2.91735C38.8357 3.56877 37.6011 4.87625 36.5099 6.44895C37.111 10.0597 36.311 13.8658 34.1055 16.9647C36.2047 16.1039 39.0854 14.0472 40.8702 9.11045C43.3162 2.34504 47.658 2.09843 47.658 2.09843C47.658 2.09843 44.3381 0.921231 40.1905 2.91735Z" fill="#FF782B"></path><path d="M22.1345 9.11045C23.9193 14.0426 26.8 16.1039 28.8992 16.9647C26.6936 13.8658 25.8891 10.0643 26.4948 6.44895C25.4036 4.87625 24.169 3.56877 22.8142 2.91735C18.6666 0.921231 15.3467 2.09843 15.3467 2.09843C15.3467 2.09843 19.6839 2.34504 22.1345 9.11045Z" fill="#FF782B"></path><path d="M24.3722 36.3024C22.8787 43.8588 24.7098 51.9503 29.8746 58.1946C29.5926 49.7867 27.3731 42.4582 24.3722 36.3024Z" fill="#3D422F"></path><path d="M32.6582 21.7944C35.6128 24.777 37.7537 28.2714 39.0807 31.9984C48.4024 15.8014 62.9999 7.56567 62.9999 7.56567C48.4487 8.35668 36.3388 18.4164 32.6582 21.7944Z" fill="#3D422F"></path><path d="M49.8169 20.259C51.1255 22.9624 51.856 25.9915 51.856 29.1927C51.856 37.4796 46.9409 44.6266 39.8895 47.8511C39.4965 49.5308 38.9509 51.178 38.248 52.7693C48.4205 49.8146 55.888 40.3691 55.888 29.1927C55.888 24.8747 54.7691 20.8174 52.8178 17.2904C51.8376 18.207 50.8295 19.1981 49.8169 20.259Z" fill="#3D422F"></path><path d="M23.096 47.8418C16.0539 44.6173 11.1433 37.475 11.1433 29.1927C11.1433 25.9868 11.8831 22.9485 13.1917 20.2451C12.1791 19.1842 11.1711 18.1931 10.1908 17.2765C8.23493 20.8081 7.11133 24.8701 7.11133 29.1927C7.11133 40.3692 14.5742 49.8147 24.7467 52.7693C24.0393 51.1827 23.489 49.5308 23.096 47.8418Z" fill="#FF782B"></path></svg>